<svg width="207" height="56" viewBox="0 0 207 56" fill="none" xmlns="http://www.w3.org/2000/svg">
<path d="M140.474 31.304C139.528 30.7426 138.479 30.4642 137.324 30.4642C136.303 30.4642 135.357 30.6915 134.494 31.1509C133.626 31.6102 132.925 32.2274 132.387 32.9976V30.8911L130.248 31.8098V46.1795H132.387V37.1456C132.387 36.3105 132.591 35.5495 132.999 34.8628C133.408 34.1807 133.955 33.6379 134.642 33.2296C135.329 32.8213 136.085 32.6171 136.916 32.6171C137.746 32.6171 138.512 32.8213 139.194 33.2296C139.876 33.6379 140.419 34.1807 140.832 34.8628C141.24 35.5495 141.439 36.3105 141.439 37.1456V46.1795H143.583V36.7188C143.583 35.5681 143.295 34.5148 142.739 33.5636C142.177 32.6171 141.421 31.8608 140.479 31.304M126.828 37.6189C126.759 36.6724 126.471 35.8093 125.965 35.0159C125.46 34.2225 124.81 33.5961 124.017 33.1182C123.219 32.6449 122.346 32.4083 121.4 32.4083C120.453 32.4083 119.586 32.6357 118.801 33.0997C118.013 33.5636 117.377 34.1947 116.871 34.9788C116.375 35.7722 116.069 36.6492 115.957 37.6143H126.824L126.828 37.6189ZM128.55 35.8465C128.902 36.9229 129.046 38.0922 128.981 39.3496H116.017C116.138 40.3147 116.449 41.1823 116.941 41.9433C117.437 42.7089 118.073 43.3167 118.839 43.7528C119.609 44.1983 120.463 44.4256 121.4 44.4349C122.421 44.4349 123.339 44.1704 124.156 43.6415C124.982 43.1079 125.641 42.3841 126.137 41.4561H128.313C127.942 43.0105 126.777 44.4256 125.539 45.2886C124.309 46.1516 122.922 46.5785 121.395 46.5785C119.989 46.5785 118.704 46.2212 117.549 45.4974C116.393 44.7736 115.47 43.7992 114.779 42.5882C114.092 41.3679 113.749 40.0224 113.749 38.5422C113.749 37.424 113.948 36.3754 114.347 35.3964C114.742 34.4267 115.294 33.5683 115.99 32.8305C116.686 32.0881 117.502 31.5175 118.426 31.0999C119.354 30.6823 120.342 30.4688 121.395 30.4688C122.527 30.4688 123.567 30.6916 124.522 31.1416C125.474 31.5917 126.299 32.2181 126.986 33.0208C127.673 33.8281 128.193 34.77 128.545 35.8511M157.633 37.6189C157.563 36.6724 157.275 35.8093 156.77 35.0159C156.264 34.2225 155.61 33.5961 154.821 33.1182C154.023 32.6449 153.15 32.4083 152.204 32.4083C151.257 32.4083 150.39 32.6357 149.606 33.0997C148.821 33.5636 148.181 34.19 147.675 34.9788C147.179 35.7722 146.873 36.6492 146.761 37.6143H157.633V37.6189ZM159.354 35.8465C159.707 36.9275 159.851 38.0922 159.79 39.3496H146.826C146.947 40.3147 147.258 41.1823 147.75 41.9433C148.246 42.7089 148.882 43.3167 149.647 43.7528C150.418 44.1983 151.267 44.4256 152.209 44.4349C153.229 44.4349 154.148 44.1704 154.969 43.6461C155.795 43.1125 156.454 42.3887 156.951 41.4561H159.127C158.755 43.0105 157.591 44.4256 156.357 45.2886C155.127 46.1516 153.74 46.5785 152.213 46.5785C150.807 46.5785 149.522 46.2212 148.367 45.4974C147.207 44.7736 146.288 43.8039 145.597 42.5882C144.91 41.3679 144.567 40.0224 144.567 38.5422C144.567 37.424 144.766 36.3754 145.165 35.401C145.56 34.4267 146.112 33.5729 146.808 32.8305C147.508 32.0928 148.32 31.5175 149.244 31.0999C150.172 30.6823 151.16 30.4688 152.213 30.4688C153.345 30.4688 154.385 30.6916 155.341 31.1416C156.292 31.5917 157.113 32.2181 157.804 33.0208C158.491 33.8281 159.006 34.77 159.363 35.8511M196.074 30.8911L191.55 43.2332L187.328 30.8911H184.989L190.478 46.1795L187.694 53.826H189.973L198.343 30.8911H196.074ZM170.536 30.8679C169.46 30.5199 168.736 30.4642 168.147 30.4642C167.126 30.4642 166.184 30.6915 165.316 31.1509C164.449 31.6102 163.748 32.2274 163.205 33.0022V30.8911L161.066 31.833V46.1841H163.205V37.1456C163.205 36.3105 163.409 35.5495 163.818 34.8674C164.226 34.1854 164.783 33.6564 165.46 33.2296C166.639 32.4872 167.961 32.3526 168.959 32.6635L170.536 30.8632V30.8679ZM181.737 38.5376C181.737 37.4519 181.519 36.4496 181.097 35.5495C180.674 34.6494 180.076 33.9256 179.301 33.378C178.531 32.8352 177.621 32.5568 176.582 32.5568C175.543 32.5568 174.596 32.8259 173.742 33.3595C172.893 33.8977 172.216 34.6169 171.719 35.5263C171.218 36.4357 170.968 37.4379 170.968 38.5376C170.968 39.6373 171.223 40.6395 171.733 41.5442C172.239 42.4444 172.921 43.1636 173.775 43.6971C174.624 44.2307 175.561 44.4999 176.582 44.4999C177.603 44.4999 178.559 44.2261 179.329 43.6786C180.094 43.1264 180.693 42.3933 181.11 41.4932C181.528 40.5838 181.741 39.6001 181.741 38.5376M181.857 31.8098L183.996 30.8911V46.7456C183.996 47.7246 183.783 48.6433 183.361 49.497C182.939 50.3554 182.368 51.1117 181.649 51.752C180.93 52.4016 180.113 52.912 179.194 53.2739C178.275 53.6404 177.324 53.826 176.336 53.826C175.273 53.826 174.248 53.5847 173.26 53.1022C172.271 52.615 171.413 51.9701 170.685 51.1674C169.952 50.36 168.945 48.8196 168.782 47.5854H171.107C171.302 48.351 171.668 49.0423 172.197 49.6594C172.731 50.2719 173.367 50.7637 174.095 51.1256C174.828 51.4922 175.57 51.6731 176.336 51.6731C177.041 51.6731 177.719 51.5432 178.378 51.2787C179.036 51.0189 179.63 50.6663 180.155 50.2162C180.679 49.7661 181.097 49.2418 181.398 48.6525C181.704 48.054 181.857 47.423 181.857 46.7456V43.3677C181.324 44.3235 180.614 45.103 179.709 45.6923C178.804 46.2769 177.76 46.5739 176.568 46.5739C175.501 46.5739 174.489 46.3697 173.552 45.9521C172.606 45.5345 171.775 44.9546 171.06 44.2122C170.346 43.4698 169.794 42.6207 169.385 41.6556C168.982 40.6812 168.782 39.6419 168.782 38.533C168.782 37.424 168.982 36.3847 169.385 35.4057C169.794 34.4313 170.346 33.5776 171.06 32.8398C171.775 32.0974 172.601 31.5221 173.552 31.1091C174.489 30.6869 175.501 30.4827 176.568 30.4827C177.76 30.4827 178.804 30.7704 179.709 31.3597C180.614 31.9443 181.329 32.7192 181.857 33.6936V31.8098ZM104.589 38.5376C104.589 37.7442 104.418 37.0157 104.061 36.3615C103.708 35.7026 103.235 35.1783 102.641 34.7886C102.047 34.3895 101.388 34.1947 100.678 34.1947C99.9681 34.1947 99.2861 34.3942 98.6922 34.7932C98.1029 35.1922 97.6296 35.7212 97.2816 36.3847C96.9383 37.0435 96.762 37.7627 96.762 38.5376C96.762 39.3125 96.9429 40.0688 97.2956 40.7276C97.6528 41.3772 98.1307 41.8969 98.7293 42.282C99.3232 42.6625 99.9728 42.8527 100.678 42.8527C101.42 42.8527 102.089 42.6578 102.682 42.2588C103.276 41.8598 103.74 41.3401 104.084 40.6812C104.422 40.0316 104.599 39.3171 104.599 38.5422M107.29 34.4684C107.977 35.6933 108.32 37.0482 108.32 38.5376C108.32 39.6465 108.12 40.6859 107.726 41.6602C107.332 42.6253 106.779 43.4744 106.079 44.2168C105.383 44.9546 104.571 45.5392 103.648 45.9568C102.724 46.3744 101.736 46.5785 100.673 46.5785C99.2675 46.5785 97.9823 46.2212 96.8269 45.4974C95.667 44.7736 94.7436 43.8039 94.0569 42.5882C93.3702 41.3679 93.0269 40.0224 93.0269 38.5422C93.0269 37.424 93.2217 36.3754 93.6208 35.401C94.0152 34.4267 94.5673 33.5729 95.2633 32.8305C95.9593 32.0928 96.7759 31.5175 97.6992 31.0999C98.6272 30.6823 99.6155 30.4688 100.669 30.4688C102.075 30.4688 103.355 30.8261 104.515 31.5499C105.675 32.2738 106.594 33.2528 107.285 34.4731M73.3723 46.1795H77.1028V30.8725H73.3723V46.1795ZM75.2561 25.0958C74.7179 25.0958 74.2585 25.2814 73.878 25.6434C73.5022 26.0145 73.312 26.4693 73.312 27.0075C73.312 27.5457 73.5022 28.0097 73.878 28.3763C74.2585 28.7335 74.7225 28.9191 75.2746 28.9191C75.8268 28.9191 76.2676 28.7335 76.6341 28.3763C77.0053 28.0097 77.1909 27.555 77.1909 27.0075C77.1909 26.46 77.0007 26.0145 76.6295 25.6434C76.2537 25.2768 75.799 25.0958 75.2607 25.0958M62.8166 41.8226L56.6223 24.7757H52.6645L60.4317 46.1841H65.2015L72.9686 24.7757H69.0201L62.8119 41.8226H62.8166ZM94.1404 30.8771L88.5726 46.1841H83.761L78.1931 30.8771H82.1695L86.1737 41.8876L90.1641 30.8771H94.1404Z" fill="#0F451F"/>
<path d="M0.191535 20.6648C3.15178 18.1499 14.4406 12.415 23.1915 12.4614C29.163 12.4939 28.4995 14.9299 26.6203 17.8437C20.3101 27.6199 3.33738 55.566 9.8889 55.9882C25.1773 56.9672 58.6309 -3.36985 93.56 2.35577C94.5529 2.51816 94.6596 2.27225 93.9219 1.94746C68.5092 -9.23467 28.2536 31.4154 28.0726 30.7751C27.8917 30.1348 40.8648 12.5171 38.8928 9.32024C36.2156 4.97267 10.7473 7.68236 0.061619 20.4281C-0.100777 20.623 0.0987375 20.7204 0.191535 20.6648Z" fill="#00BF40"/>
<path d="M201.716 45.2637C202.458 45.2637 203.182 45.4551 203.89 45.8379C204.597 46.2168 205.147 46.7617 205.542 47.4727C205.936 48.1797 206.134 48.918 206.134 49.6875C206.134 50.4492 205.938 51.1816 205.548 51.8848C205.161 52.5879 204.616 53.1348 203.913 53.5254C203.214 53.9121 202.481 54.1055 201.716 54.1055C200.95 54.1055 200.216 53.9121 199.513 53.5254C198.813 53.1348 198.268 52.5879 197.878 51.8848C197.487 51.1816 197.292 50.4492 197.292 49.6875C197.292 48.918 197.489 48.1797 197.884 47.4727C198.282 46.7617 198.835 46.2168 199.542 45.8379C200.249 45.4551 200.974 45.2637 201.716 45.2637ZM201.716 45.9961C201.095 45.9961 200.489 46.1562 199.899 46.4766C199.313 46.793 198.854 47.248 198.522 47.8418C198.19 48.4316 198.024 49.0469 198.024 49.6875C198.024 50.3242 198.186 50.9355 198.511 51.5215C198.839 52.1035 199.296 52.5586 199.882 52.8867C200.468 53.2109 201.079 53.373 201.716 53.373C202.352 53.373 202.964 53.2109 203.55 52.8867C204.136 52.5586 204.591 52.1035 204.915 51.5215C205.239 50.9355 205.401 50.3242 205.401 49.6875C205.401 49.0469 205.235 48.4316 204.903 47.8418C204.575 47.248 204.116 46.793 203.526 46.4766C202.936 46.1562 202.333 45.9961 201.716 45.9961ZM203.134 50.4023L203.854 50.6133C203.737 51.1016 203.487 51.4922 203.104 51.7852C202.725 52.0742 202.265 52.2188 201.722 52.2188C201.034 52.2188 200.475 51.9961 200.046 51.5508C199.616 51.1055 199.401 50.4883 199.401 49.6992C199.401 49.1836 199.499 48.7363 199.694 48.3574C199.89 47.9746 200.167 47.6875 200.526 47.4961C200.89 47.3008 201.304 47.2031 201.768 47.2031C202.288 47.2031 202.72 47.3281 203.063 47.5781C203.407 47.8242 203.641 48.1602 203.766 48.5859L203.069 48.7559C202.952 48.4668 202.778 48.2461 202.548 48.0938C202.321 47.9375 202.054 47.8594 201.745 47.8594C201.296 47.8594 200.925 48.0195 200.632 48.3398C200.343 48.6602 200.198 49.1191 200.198 49.7168C200.198 50.3145 200.335 50.7676 200.608 51.0762C200.886 51.3809 201.243 51.5332 201.681 51.5332C202.032 51.5332 202.341 51.4316 202.606 51.2285C202.872 51.0254 203.048 50.75 203.134 50.4023Z" fill="#B2B2B2"/>
</svg>
