<svg width="128" height="128" viewBox="0 0 128 128" fill="none" xmlns="http://www.w3.org/2000/svg">
<g id="Favicon">
<rect width="128" height="128" fill="#0F451F"/>
<path id="Vector" d="M7.23119 55.0929C10.8043 52.0392 24.4303 45.0754 34.9928 45.1317C42.2006 45.1712 41.3998 48.1291 39.1316 51.6674C31.5149 63.5385 11.0283 97.473 18.9362 97.9857C37.3898 99.1745 77.7693 25.908 119.93 32.8606C121.128 33.0578 121.257 32.7592 120.367 32.3648C89.6928 18.7865 41.1029 68.1472 40.8845 67.3697C40.6661 66.5922 56.3251 45.1994 53.9449 41.3174C50.7134 36.0382 19.9723 39.3286 7.07438 54.8056C6.87836 55.0422 7.11918 55.1605 7.23119 55.0929Z" fill="#00BF40"/>
</g>
</svg>
